<svg xmlns="http://www.w3.org/2000/svg" width="640" height="220" role="img" aria-label="TODOs trend">
<title>TODOs trend</title>
<rect width="640" height="220" fill="#ffffff"/>
<rect x="40" y="24" width="582" height="162" fill="#f6f8fa" stroke="#d0d7de"/>
<line x1="40" y1="186" x2="622" y2="186" stroke="#8c959f" stroke-width="1"/>
<line x1="40" y1="24" x2="40" y2="186" stroke="#8c959f" stroke-width="1"/>
<line x1="40.00" y1="24" x2="40.00" y2="186" stroke="#8c959f" stroke-dasharray="4 4"/>

<path d="M 40.00 55.70 L 40.08 50.41 L 40.17 41.61 L 40.47 41.61 L 154.02 41.61 L 156.06 41.61 L 185.61 41.61 L 186.35 41.61 L 261.36 41.61 L 398.55 24.00 L 496.35 24.00 L 618.90 24.00 L 622.00 24.00" fill="none" stroke="#dbab09" stroke-width="3"/>
<circle cx="40.00" cy="55.70" r="3.5" fill="#ffffff" stroke="#dbab09" stroke-width="2"/>
<circle cx="40.08" cy="50.41" r="3.5" fill="#ffffff" stroke="#dbab09" stroke-width="2"/>
<circle cx="40.17" cy="41.61" r="3.5" fill="#ffffff" stroke="#dbab09" stroke-width="2"/>
<circle cx="40.47" cy="41.61" r="3.5" fill="#ffffff" stroke="#dbab09" stroke-width="2"/>
<circle cx="154.02" cy="41.61" r="3.5" fill="#ffffff" stroke="#dbab09" stroke-width="2"/>
<circle cx="156.06" cy="41.61" r="3.5" fill="#ffffff" stroke="#dbab09" stroke-width="2"/>
<circle cx="185.61" cy="41.61" r="3.5" fill="#ffffff" stroke="#dbab09" stroke-width="2"/>
<circle cx="186.35" cy="41.61" r="3.5" fill="#ffffff" stroke="#dbab09" stroke-width="2"/>
<circle cx="261.36" cy="41.61" r="3.5" fill="#ffffff" stroke="#dbab09" stroke-width="2"/>
<circle cx="398.55" cy="24.00" r="3.5" fill="#ffffff" stroke="#dbab09" stroke-width="2"/>
<circle cx="496.35" cy="24.00" r="3.5" fill="#ffffff" stroke="#dbab09" stroke-width="2"/>
<circle cx="618.90" cy="24.00" r="3.5" fill="#ffffff" stroke="#dbab09" stroke-width="2"/>
<circle cx="622.00" cy="24.00" r="3.5" fill="#ffffff" stroke="#dbab09" stroke-width="2"/>
<circle cx="622.00" cy="24.00" r="4.5" fill="#dbab09" stroke="#ffffff" stroke-width="2"/>
<text x="40" y="16" fill="#24292f" font-family="Verdana,Geneva,DejaVu Sans,sans-serif" font-size="13">TODOs trend</text>
<text x="622" y="16" text-anchor="end" fill="#57606a" font-family="Verdana,Geneva,DejaVu Sans,sans-serif" font-size="12">latest 92</text>
<text x="146.00" y="196" text-anchor="middle" fill="#57606a" font-family="Verdana,Geneva,DejaVu Sans,sans-serif" font-size="11">last 30d</text>
<text x="40" y="210" fill="#57606a" font-family="Verdana,Geneva,DejaVu Sans,sans-serif" font-size="11">2026-04-05</text>
<text x="622" y="210" text-anchor="end" fill="#57606a" font-family="Verdana,Geneva,DejaVu Sans,sans-serif" font-size="11">2026-05-05</text>
<text x="12" y="30" fill="#57606a" font-family="Verdana,Geneva,DejaVu Sans,sans-serif" font-size="11">92</text>
<text x="18" y="186" fill="#57606a" font-family="Verdana,Geneva,DejaVu Sans,sans-serif" font-size="11">0</text>
</svg>
