<svg xmlns="http://www.w3.org/2000/svg" width="640" height="220" role="img" aria-label="TODOs trend">
<title>TODOs trend</title>
<rect width="640" height="220" fill="#ffffff"/>
<rect x="40" y="24" width="582" height="162" fill="#f6f8fa" stroke="#d0d7de"/>
<line x1="40" y1="186" x2="622" y2="186" stroke="#8c959f" stroke-width="1"/>
<line x1="40" y1="24" x2="40" y2="186" stroke="#8c959f" stroke-width="1"/>
<line x1="362.63" y1="24" x2="362.63" y2="186" stroke="#8c959f" stroke-dasharray="4 4"/>
<path d="M 40.00 79.91 L 40.04 75.61 L 40.08 68.44 L 40.21 68.44 L 90.66 68.44 L 91.56 68.44 L 104.70 68.44 L 105.02 68.44 L 138.35 68.44 L 199.30 54.11 L 242.76 54.11 L 297.21 54.11 L 298.59 54.11 L 298.82 54.11 L 303.29 54.11 L 308.08 54.11 L 309.61 54.11 L 331.47 54.11 L 366.64 54.11" fill="none" stroke="#dbab09" stroke-width="2" stroke-dasharray="4 4" opacity="0.65"/>
<path d="M 331.47 54.11 L 366.64 54.11 L 396.45 54.11 L 399.07 49.81 L 402.51 46.94 L 407.76 41.20 L 407.76 41.20 L 407.76 41.20 L 410.13 41.20 L 463.04 35.47 L 475.52 32.60 L 500.87 28.30 L 500.88 24.00 L 526.58 24.00 L 535.09 24.00 L 562.25 24.00 L 562.25 24.00 L 606.02 24.00 L 606.55 24.00 L 622.00 24.00" fill="none" stroke="#dbab09" stroke-width="3"/>
<circle cx="40.00" cy="79.91" r="3.5" fill="#ffffff" stroke="#dbab09" stroke-width="2" stroke-dasharray="3 3" opacity="0.75"/>
<circle cx="40.04" cy="75.61" r="3.5" fill="#ffffff" stroke="#dbab09" stroke-width="2" stroke-dasharray="3 3" opacity="0.75"/>
<circle cx="40.08" cy="68.44" r="3.5" fill="#ffffff" stroke="#dbab09" stroke-width="2" stroke-dasharray="3 3" opacity="0.75"/>
<circle cx="40.21" cy="68.44" r="3.5" fill="#ffffff" stroke="#dbab09" stroke-width="2" stroke-dasharray="3 3" opacity="0.75"/>
<circle cx="90.66" cy="68.44" r="3.5" fill="#ffffff" stroke="#dbab09" stroke-width="2" stroke-dasharray="3 3" opacity="0.75"/>
<circle cx="91.56" cy="68.44" r="3.5" fill="#ffffff" stroke="#dbab09" stroke-width="2" stroke-dasharray="3 3" opacity="0.75"/>
<circle cx="104.70" cy="68.44" r="3.5" fill="#ffffff" stroke="#dbab09" stroke-width="2" stroke-dasharray="3 3" opacity="0.75"/>
<circle cx="105.02" cy="68.44" r="3.5" fill="#ffffff" stroke="#dbab09" stroke-width="2" stroke-dasharray="3 3" opacity="0.75"/>
<circle cx="138.35" cy="68.44" r="3.5" fill="#ffffff" stroke="#dbab09" stroke-width="2" stroke-dasharray="3 3" opacity="0.75"/>
<circle cx="199.30" cy="54.11" r="3.5" fill="#ffffff" stroke="#dbab09" stroke-width="2" stroke-dasharray="3 3" opacity="0.75"/>
<circle cx="242.76" cy="54.11" r="3.5" fill="#ffffff" stroke="#dbab09" stroke-width="2" stroke-dasharray="3 3" opacity="0.75"/>
<circle cx="297.21" cy="54.11" r="3.5" fill="#ffffff" stroke="#dbab09" stroke-width="2" stroke-dasharray="3 3" opacity="0.75"/>
<circle cx="298.59" cy="54.11" r="3.5" fill="#ffffff" stroke="#dbab09" stroke-width="2" stroke-dasharray="3 3" opacity="0.75"/>
<circle cx="298.82" cy="54.11" r="3.5" fill="#ffffff" stroke="#dbab09" stroke-width="2" stroke-dasharray="3 3" opacity="0.75"/>
<circle cx="303.29" cy="54.11" r="3.5" fill="#ffffff" stroke="#dbab09" stroke-width="2" stroke-dasharray="3 3" opacity="0.75"/>
<circle cx="308.08" cy="54.11" r="3.5" fill="#ffffff" stroke="#dbab09" stroke-width="2" stroke-dasharray="3 3" opacity="0.75"/>
<circle cx="309.61" cy="54.11" r="3.5" fill="#ffffff" stroke="#dbab09" stroke-width="2" stroke-dasharray="3 3" opacity="0.75"/>
<circle cx="331.47" cy="54.11" r="3.5" fill="#ffffff" stroke="#dbab09" stroke-width="2" stroke-dasharray="3 3" opacity="0.75"/>
<circle cx="366.64" cy="54.11" r="3.5" fill="#ffffff" stroke="#dbab09" stroke-width="2"/>
<circle cx="396.45" cy="54.11" r="3.5" fill="#ffffff" stroke="#dbab09" stroke-width="2"/>
<circle cx="399.07" cy="49.81" r="3.5" fill="#ffffff" stroke="#dbab09" stroke-width="2"/>
<circle cx="402.51" cy="46.94" r="3.5" fill="#ffffff" stroke="#dbab09" stroke-width="2"/>
<circle cx="407.76" cy="41.20" r="3.5" fill="#ffffff" stroke="#dbab09" stroke-width="2"/>
<circle cx="407.76" cy="41.20" r="3.5" fill="#ffffff" stroke="#dbab09" stroke-width="2"/>
<circle cx="407.76" cy="41.20" r="3.5" fill="#ffffff" stroke="#dbab09" stroke-width="2"/>
<circle cx="410.13" cy="41.20" r="3.5" fill="#ffffff" stroke="#dbab09" stroke-width="2"/>
<circle cx="463.04" cy="35.47" r="3.5" fill="#ffffff" stroke="#dbab09" stroke-width="2"/>
<circle cx="475.52" cy="32.60" r="3.5" fill="#ffffff" stroke="#dbab09" stroke-width="2"/>
<circle cx="500.87" cy="28.30" r="3.5" fill="#ffffff" stroke="#dbab09" stroke-width="2"/>
<circle cx="500.88" cy="24.00" r="3.5" fill="#ffffff" stroke="#dbab09" stroke-width="2"/>
<circle cx="526.58" cy="24.00" r="3.5" fill="#ffffff" stroke="#dbab09" stroke-width="2"/>
<circle cx="535.09" cy="24.00" r="3.5" fill="#ffffff" stroke="#dbab09" stroke-width="2"/>
<circle cx="562.25" cy="24.00" r="3.5" fill="#ffffff" stroke="#dbab09" stroke-width="2"/>
<circle cx="562.25" cy="24.00" r="3.5" fill="#ffffff" stroke="#dbab09" stroke-width="2"/>
<circle cx="606.02" cy="24.00" r="3.5" fill="#ffffff" stroke="#dbab09" stroke-width="2"/>
<circle cx="606.55" cy="24.00" r="3.5" fill="#ffffff" stroke="#dbab09" stroke-width="2"/>
<circle cx="622.00" cy="24.00" r="3.5" fill="#ffffff" stroke="#dbab09" stroke-width="2"/>
<circle cx="622.00" cy="24.00" r="4.5" fill="#dbab09" stroke="#ffffff" stroke-width="2"/>
<text x="40" y="16" fill="#24292f" font-family="Verdana,Geneva,DejaVu Sans,sans-serif" font-size="13">TODOs trend</text>
<text x="622" y="16" text-anchor="end" fill="#57606a" font-family="Verdana,Geneva,DejaVu Sans,sans-serif" font-size="12">latest 113</text>
<text x="362.63" y="196" text-anchor="middle" fill="#57606a" font-family="Verdana,Geneva,DejaVu Sans,sans-serif" font-size="11">last 30d</text>
<text x="40" y="210" fill="#57606a" font-family="Verdana,Geneva,DejaVu Sans,sans-serif" font-size="11">2026-04-05</text>
<text x="622" y="210" text-anchor="end" fill="#57606a" font-family="Verdana,Geneva,DejaVu Sans,sans-serif" font-size="11">2026-06-11</text>
<text x="12" y="30" fill="#57606a" font-family="Verdana,Geneva,DejaVu Sans,sans-serif" font-size="11">113</text>
<text x="18" y="186" fill="#57606a" font-family="Verdana,Geneva,DejaVu Sans,sans-serif" font-size="11">0</text>
</svg>
