<svg xmlns="http://www.w3.org/2000/svg" width="640" height="220" role="img" aria-label="TODOs trend">
<title>TODOs trend</title>
<rect width="640" height="220" fill="#ffffff"/>
<rect x="40" y="24" width="582" height="162" fill="#f6f8fa" stroke="#d0d7de"/>
<line x1="40" y1="186" x2="622" y2="186" stroke="#8c959f" stroke-width="1"/>
<line x1="40" y1="24" x2="40" y2="186" stroke="#8c959f" stroke-width="1"/>
<line x1="214.16" y1="24" x2="214.16" y2="186" stroke="#8c959f" stroke-dasharray="4 4"/>
<path d="M 40.00 67.31 L 40.06 62.50 L 40.12 54.48 L 40.33 54.48 L 119.66 54.48 L 121.08 54.48 L 141.73 54.48 L 142.24 54.48 L 194.65 54.48 L 290.49 38.44" fill="none" stroke="#dbab09" stroke-width="2" stroke-dasharray="4 4" opacity="0.65"/>
<path d="M 194.65 54.48 L 290.49 38.44 L 358.82 38.44 L 444.44 38.44 L 446.61 38.44 L 446.98 38.44 L 454.01 38.44 L 461.54 38.44 L 463.94 38.44 L 498.31 38.44 L 553.62 38.44 L 600.50 38.44 L 604.61 33.62 L 610.02 30.42 L 618.27 24.00 L 618.28 24.00 L 618.28 24.00 L 622.00 24.00" fill="none" stroke="#dbab09" stroke-width="3"/>
<circle cx="40.00" cy="67.31" r="3.5" fill="#ffffff" stroke="#dbab09" stroke-width="2" stroke-dasharray="3 3" opacity="0.75"/>
<circle cx="40.06" cy="62.50" r="3.5" fill="#ffffff" stroke="#dbab09" stroke-width="2" stroke-dasharray="3 3" opacity="0.75"/>
<circle cx="40.12" cy="54.48" r="3.5" fill="#ffffff" stroke="#dbab09" stroke-width="2" stroke-dasharray="3 3" opacity="0.75"/>
<circle cx="40.33" cy="54.48" r="3.5" fill="#ffffff" stroke="#dbab09" stroke-width="2" stroke-dasharray="3 3" opacity="0.75"/>
<circle cx="119.66" cy="54.48" r="3.5" fill="#ffffff" stroke="#dbab09" stroke-width="2" stroke-dasharray="3 3" opacity="0.75"/>
<circle cx="121.08" cy="54.48" r="3.5" fill="#ffffff" stroke="#dbab09" stroke-width="2" stroke-dasharray="3 3" opacity="0.75"/>
<circle cx="141.73" cy="54.48" r="3.5" fill="#ffffff" stroke="#dbab09" stroke-width="2" stroke-dasharray="3 3" opacity="0.75"/>
<circle cx="142.24" cy="54.48" r="3.5" fill="#ffffff" stroke="#dbab09" stroke-width="2" stroke-dasharray="3 3" opacity="0.75"/>
<circle cx="194.65" cy="54.48" r="3.5" fill="#ffffff" stroke="#dbab09" stroke-width="2" stroke-dasharray="3 3" opacity="0.75"/>
<circle cx="290.49" cy="38.44" r="3.5" fill="#ffffff" stroke="#dbab09" stroke-width="2"/>
<circle cx="358.82" cy="38.44" r="3.5" fill="#ffffff" stroke="#dbab09" stroke-width="2"/>
<circle cx="444.44" cy="38.44" r="3.5" fill="#ffffff" stroke="#dbab09" stroke-width="2"/>
<circle cx="446.61" cy="38.44" r="3.5" fill="#ffffff" stroke="#dbab09" stroke-width="2"/>
<circle cx="446.98" cy="38.44" r="3.5" fill="#ffffff" stroke="#dbab09" stroke-width="2"/>
<circle cx="454.01" cy="38.44" r="3.5" fill="#ffffff" stroke="#dbab09" stroke-width="2"/>
<circle cx="461.54" cy="38.44" r="3.5" fill="#ffffff" stroke="#dbab09" stroke-width="2"/>
<circle cx="463.94" cy="38.44" r="3.5" fill="#ffffff" stroke="#dbab09" stroke-width="2"/>
<circle cx="498.31" cy="38.44" r="3.5" fill="#ffffff" stroke="#dbab09" stroke-width="2"/>
<circle cx="553.62" cy="38.44" r="3.5" fill="#ffffff" stroke="#dbab09" stroke-width="2"/>
<circle cx="600.50" cy="38.44" r="3.5" fill="#ffffff" stroke="#dbab09" stroke-width="2"/>
<circle cx="604.61" cy="33.62" r="3.5" fill="#ffffff" stroke="#dbab09" stroke-width="2"/>
<circle cx="610.02" cy="30.42" r="3.5" fill="#ffffff" stroke="#dbab09" stroke-width="2"/>
<circle cx="618.27" cy="24.00" r="3.5" fill="#ffffff" stroke="#dbab09" stroke-width="2"/>
<circle cx="618.28" cy="24.00" r="3.5" fill="#ffffff" stroke="#dbab09" stroke-width="2"/>
<circle cx="618.28" cy="24.00" r="3.5" fill="#ffffff" stroke="#dbab09" stroke-width="2"/>
<circle cx="622.00" cy="24.00" r="3.5" fill="#ffffff" stroke="#dbab09" stroke-width="2"/>
<circle cx="622.00" cy="24.00" r="4.5" fill="#dbab09" stroke="#ffffff" stroke-width="2"/>
<text x="40" y="16" fill="#24292f" font-family="Verdana,Geneva,DejaVu Sans,sans-serif" font-size="13">TODOs trend</text>
<text x="622" y="16" text-anchor="end" fill="#57606a" font-family="Verdana,Geneva,DejaVu Sans,sans-serif" font-size="12">latest 101</text>
<text x="214.16" y="196" text-anchor="middle" fill="#57606a" font-family="Verdana,Geneva,DejaVu Sans,sans-serif" font-size="11">last 30d</text>
<text x="40" y="210" fill="#57606a" font-family="Verdana,Geneva,DejaVu Sans,sans-serif" font-size="11">2026-04-05</text>
<text x="622" y="210" text-anchor="end" fill="#57606a" font-family="Verdana,Geneva,DejaVu Sans,sans-serif" font-size="11">2026-05-18</text>
<text x="12" y="30" fill="#57606a" font-family="Verdana,Geneva,DejaVu Sans,sans-serif" font-size="11">101</text>
<text x="18" y="186" fill="#57606a" font-family="Verdana,Geneva,DejaVu Sans,sans-serif" font-size="11">0</text>
</svg>
