<svg xmlns="http://www.w3.org/2000/svg" width="640" height="220" role="img" aria-label="TODOs trend">
<title>TODOs trend</title>
<rect width="640" height="220" fill="#ffffff"/>
<rect x="40" y="24" width="582" height="162" fill="#f6f8fa" stroke="#d0d7de"/>
<line x1="40" y1="186" x2="622" y2="186" stroke="#8c959f" stroke-width="1"/>
<line x1="40" y1="24" x2="40" y2="186" stroke="#8c959f" stroke-width="1"/>
<line x1="275.40" y1="24" x2="275.40" y2="186" stroke="#8c959f" stroke-dasharray="4 4"/>
<path d="M 40.00 73.96 L 40.05 69.42 L 40.10 61.85 L 40.28 61.85 L 107.70 61.85 L 108.91 61.85 L 126.46 61.85 L 126.89 61.85 L 171.43 61.85 L 252.88 46.71 L 310.95 46.71" fill="none" stroke="#dbab09" stroke-width="2" stroke-dasharray="4 4" opacity="0.65"/>
<path d="M 252.88 46.71 L 310.95 46.71 L 383.72 46.71 L 385.56 46.71 L 385.87 46.71 L 391.84 46.71 L 398.24 46.71 L 400.29 46.71 L 429.50 46.71 L 476.50 46.71 L 516.34 46.71 L 519.83 42.17 L 524.43 39.14 L 531.45 33.08 L 531.45 33.08 L 531.45 33.08 L 534.61 33.08 L 605.31 27.03 L 622.00 24.00" fill="none" stroke="#dbab09" stroke-width="3"/>
<circle cx="40.00" cy="73.96" r="3.5" fill="#ffffff" stroke="#dbab09" stroke-width="2" stroke-dasharray="3 3" opacity="0.75"/>
<circle cx="40.05" cy="69.42" r="3.5" fill="#ffffff" stroke="#dbab09" stroke-width="2" stroke-dasharray="3 3" opacity="0.75"/>
<circle cx="40.10" cy="61.85" r="3.5" fill="#ffffff" stroke="#dbab09" stroke-width="2" stroke-dasharray="3 3" opacity="0.75"/>
<circle cx="40.28" cy="61.85" r="3.5" fill="#ffffff" stroke="#dbab09" stroke-width="2" stroke-dasharray="3 3" opacity="0.75"/>
<circle cx="107.70" cy="61.85" r="3.5" fill="#ffffff" stroke="#dbab09" stroke-width="2" stroke-dasharray="3 3" opacity="0.75"/>
<circle cx="108.91" cy="61.85" r="3.5" fill="#ffffff" stroke="#dbab09" stroke-width="2" stroke-dasharray="3 3" opacity="0.75"/>
<circle cx="126.46" cy="61.85" r="3.5" fill="#ffffff" stroke="#dbab09" stroke-width="2" stroke-dasharray="3 3" opacity="0.75"/>
<circle cx="126.89" cy="61.85" r="3.5" fill="#ffffff" stroke="#dbab09" stroke-width="2" stroke-dasharray="3 3" opacity="0.75"/>
<circle cx="171.43" cy="61.85" r="3.5" fill="#ffffff" stroke="#dbab09" stroke-width="2" stroke-dasharray="3 3" opacity="0.75"/>
<circle cx="252.88" cy="46.71" r="3.5" fill="#ffffff" stroke="#dbab09" stroke-width="2" stroke-dasharray="3 3" opacity="0.75"/>
<circle cx="310.95" cy="46.71" r="3.5" fill="#ffffff" stroke="#dbab09" stroke-width="2"/>
<circle cx="383.72" cy="46.71" r="3.5" fill="#ffffff" stroke="#dbab09" stroke-width="2"/>
<circle cx="385.56" cy="46.71" r="3.5" fill="#ffffff" stroke="#dbab09" stroke-width="2"/>
<circle cx="385.87" cy="46.71" r="3.5" fill="#ffffff" stroke="#dbab09" stroke-width="2"/>
<circle cx="391.84" cy="46.71" r="3.5" fill="#ffffff" stroke="#dbab09" stroke-width="2"/>
<circle cx="398.24" cy="46.71" r="3.5" fill="#ffffff" stroke="#dbab09" stroke-width="2"/>
<circle cx="400.29" cy="46.71" r="3.5" fill="#ffffff" stroke="#dbab09" stroke-width="2"/>
<circle cx="429.50" cy="46.71" r="3.5" fill="#ffffff" stroke="#dbab09" stroke-width="2"/>
<circle cx="476.50" cy="46.71" r="3.5" fill="#ffffff" stroke="#dbab09" stroke-width="2"/>
<circle cx="516.34" cy="46.71" r="3.5" fill="#ffffff" stroke="#dbab09" stroke-width="2"/>
<circle cx="519.83" cy="42.17" r="3.5" fill="#ffffff" stroke="#dbab09" stroke-width="2"/>
<circle cx="524.43" cy="39.14" r="3.5" fill="#ffffff" stroke="#dbab09" stroke-width="2"/>
<circle cx="531.45" cy="33.08" r="3.5" fill="#ffffff" stroke="#dbab09" stroke-width="2"/>
<circle cx="531.45" cy="33.08" r="3.5" fill="#ffffff" stroke="#dbab09" stroke-width="2"/>
<circle cx="531.45" cy="33.08" r="3.5" fill="#ffffff" stroke="#dbab09" stroke-width="2"/>
<circle cx="534.61" cy="33.08" r="3.5" fill="#ffffff" stroke="#dbab09" stroke-width="2"/>
<circle cx="605.31" cy="27.03" r="3.5" fill="#ffffff" stroke="#dbab09" stroke-width="2"/>
<circle cx="622.00" cy="24.00" r="3.5" fill="#ffffff" stroke="#dbab09" stroke-width="2"/>
<circle cx="622.00" cy="24.00" r="4.5" fill="#dbab09" stroke="#ffffff" stroke-width="2"/>
<text x="40" y="16" fill="#24292f" font-family="Verdana,Geneva,DejaVu Sans,sans-serif" font-size="13">TODOs trend</text>
<text x="622" y="16" text-anchor="end" fill="#57606a" font-family="Verdana,Geneva,DejaVu Sans,sans-serif" font-size="12">latest 107</text>
<text x="275.40" y="196" text-anchor="middle" fill="#57606a" font-family="Verdana,Geneva,DejaVu Sans,sans-serif" font-size="11">last 30d</text>
<text x="40" y="210" fill="#57606a" font-family="Verdana,Geneva,DejaVu Sans,sans-serif" font-size="11">2026-04-05</text>
<text x="622" y="210" text-anchor="end" fill="#57606a" font-family="Verdana,Geneva,DejaVu Sans,sans-serif" font-size="11">2026-05-25</text>
<text x="12" y="30" fill="#57606a" font-family="Verdana,Geneva,DejaVu Sans,sans-serif" font-size="11">107</text>
<text x="18" y="186" fill="#57606a" font-family="Verdana,Geneva,DejaVu Sans,sans-serif" font-size="11">0</text>
</svg>
