<svg xmlns="http://www.w3.org/2000/svg" width="640" height="220" role="img" aria-label="TODOs trend">
<title>TODOs trend</title>
<rect width="640" height="220" fill="#ffffff"/>
<rect x="40" y="24" width="582" height="162" fill="#f6f8fa" stroke="#d0d7de"/>
<line x1="40" y1="186" x2="622" y2="186" stroke="#8c959f" stroke-width="1"/>
<line x1="40" y1="24" x2="40" y2="186" stroke="#8c959f" stroke-width="1"/>
<line x1="211.53" y1="24" x2="211.53" y2="186" stroke="#8c959f" stroke-dasharray="4 4"/>
<path d="M 40.00 67.31 L 40.06 62.50 L 40.12 54.48 L 40.33 54.48 L 120.17 54.48 L 121.60 54.48 L 142.39 54.48 L 142.90 54.48 L 195.64 54.48 L 292.11 38.44" fill="none" stroke="#dbab09" stroke-width="2" stroke-dasharray="4 4" opacity="0.65"/>
<path d="M 195.64 54.48 L 292.11 38.44 L 360.88 38.44 L 447.05 38.44 L 449.23 38.44 L 449.60 38.44 L 456.67 38.44 L 464.25 38.44 L 466.67 38.44 L 501.27 38.44 L 556.93 38.44 L 604.11 38.44 L 608.25 33.62 L 613.69 30.42 L 622.00 24.00" fill="none" stroke="#dbab09" stroke-width="3"/>
<circle cx="40.00" cy="67.31" r="3.5" fill="#ffffff" stroke="#dbab09" stroke-width="2" stroke-dasharray="3 3" opacity="0.75"/>
<circle cx="40.06" cy="62.50" r="3.5" fill="#ffffff" stroke="#dbab09" stroke-width="2" stroke-dasharray="3 3" opacity="0.75"/>
<circle cx="40.12" cy="54.48" r="3.5" fill="#ffffff" stroke="#dbab09" stroke-width="2" stroke-dasharray="3 3" opacity="0.75"/>
<circle cx="40.33" cy="54.48" r="3.5" fill="#ffffff" stroke="#dbab09" stroke-width="2" stroke-dasharray="3 3" opacity="0.75"/>
<circle cx="120.17" cy="54.48" r="3.5" fill="#ffffff" stroke="#dbab09" stroke-width="2" stroke-dasharray="3 3" opacity="0.75"/>
<circle cx="121.60" cy="54.48" r="3.5" fill="#ffffff" stroke="#dbab09" stroke-width="2" stroke-dasharray="3 3" opacity="0.75"/>
<circle cx="142.39" cy="54.48" r="3.5" fill="#ffffff" stroke="#dbab09" stroke-width="2" stroke-dasharray="3 3" opacity="0.75"/>
<circle cx="142.90" cy="54.48" r="3.5" fill="#ffffff" stroke="#dbab09" stroke-width="2" stroke-dasharray="3 3" opacity="0.75"/>
<circle cx="195.64" cy="54.48" r="3.5" fill="#ffffff" stroke="#dbab09" stroke-width="2" stroke-dasharray="3 3" opacity="0.75"/>
<circle cx="292.11" cy="38.44" r="3.5" fill="#ffffff" stroke="#dbab09" stroke-width="2"/>
<circle cx="360.88" cy="38.44" r="3.5" fill="#ffffff" stroke="#dbab09" stroke-width="2"/>
<circle cx="447.05" cy="38.44" r="3.5" fill="#ffffff" stroke="#dbab09" stroke-width="2"/>
<circle cx="449.23" cy="38.44" r="3.5" fill="#ffffff" stroke="#dbab09" stroke-width="2"/>
<circle cx="449.60" cy="38.44" r="3.5" fill="#ffffff" stroke="#dbab09" stroke-width="2"/>
<circle cx="456.67" cy="38.44" r="3.5" fill="#ffffff" stroke="#dbab09" stroke-width="2"/>
<circle cx="464.25" cy="38.44" r="3.5" fill="#ffffff" stroke="#dbab09" stroke-width="2"/>
<circle cx="466.67" cy="38.44" r="3.5" fill="#ffffff" stroke="#dbab09" stroke-width="2"/>
<circle cx="501.27" cy="38.44" r="3.5" fill="#ffffff" stroke="#dbab09" stroke-width="2"/>
<circle cx="556.93" cy="38.44" r="3.5" fill="#ffffff" stroke="#dbab09" stroke-width="2"/>
<circle cx="604.11" cy="38.44" r="3.5" fill="#ffffff" stroke="#dbab09" stroke-width="2"/>
<circle cx="608.25" cy="33.62" r="3.5" fill="#ffffff" stroke="#dbab09" stroke-width="2"/>
<circle cx="613.69" cy="30.42" r="3.5" fill="#ffffff" stroke="#dbab09" stroke-width="2"/>
<circle cx="622.00" cy="24.00" r="3.5" fill="#ffffff" stroke="#dbab09" stroke-width="2"/>
<circle cx="622.00" cy="24.00" r="4.5" fill="#dbab09" stroke="#ffffff" stroke-width="2"/>
<text x="40" y="16" fill="#24292f" font-family="Verdana,Geneva,DejaVu Sans,sans-serif" font-size="13">TODOs trend</text>
<text x="622" y="16" text-anchor="end" fill="#57606a" font-family="Verdana,Geneva,DejaVu Sans,sans-serif" font-size="12">latest 101</text>
<text x="211.53" y="196" text-anchor="middle" fill="#57606a" font-family="Verdana,Geneva,DejaVu Sans,sans-serif" font-size="11">last 30d</text>
<text x="40" y="210" fill="#57606a" font-family="Verdana,Geneva,DejaVu Sans,sans-serif" font-size="11">2026-04-05</text>
<text x="622" y="210" text-anchor="end" fill="#57606a" font-family="Verdana,Geneva,DejaVu Sans,sans-serif" font-size="11">2026-05-17</text>
<text x="12" y="30" fill="#57606a" font-family="Verdana,Geneva,DejaVu Sans,sans-serif" font-size="11">101</text>
<text x="18" y="186" fill="#57606a" font-family="Verdana,Geneva,DejaVu Sans,sans-serif" font-size="11">0</text>
</svg>
