<svg xmlns="http://www.w3.org/2000/svg" width="640" height="220" role="img" aria-label="TODOs trend">
<title>TODOs trend</title>
<rect width="640" height="220" fill="#ffffff"/>
<rect x="40" y="24" width="582" height="162" fill="#f6f8fa" stroke="#d0d7de"/>
<line x1="40" y1="186" x2="622" y2="186" stroke="#8c959f" stroke-width="1"/>
<line x1="40" y1="24" x2="40" y2="186" stroke="#8c959f" stroke-width="1"/>
<line x1="317.10" y1="24" x2="317.10" y2="186" stroke="#8c959f" stroke-dasharray="4 4"/>
<path d="M 40.00 79.91 L 40.04 75.61 L 40.09 68.44 L 40.25 68.44 L 99.55 68.44 L 100.62 68.44 L 116.05 68.44 L 116.44 68.44 L 155.61 68.44 L 227.27 54.11 L 278.35 54.11 L 342.36 54.11" fill="none" stroke="#dbab09" stroke-width="2" stroke-dasharray="4 4" opacity="0.65"/>
<path d="M 278.35 54.11 L 342.36 54.11 L 343.98 54.11 L 344.25 54.11 L 349.51 54.11 L 355.14 54.11 L 356.93 54.11 L 382.63 54.11 L 423.98 54.11 L 459.02 54.11 L 462.10 49.81 L 466.14 46.94 L 472.31 41.20 L 472.31 41.20 L 472.32 41.20 L 475.10 41.20 L 537.29 35.47 L 551.97 32.60 L 581.78 28.30 L 581.78 24.00 L 611.99 24.00 L 622.00 24.00" fill="none" stroke="#dbab09" stroke-width="3"/>
<circle cx="40.00" cy="79.91" r="3.5" fill="#ffffff" stroke="#dbab09" stroke-width="2" stroke-dasharray="3 3" opacity="0.75"/>
<circle cx="40.04" cy="75.61" r="3.5" fill="#ffffff" stroke="#dbab09" stroke-width="2" stroke-dasharray="3 3" opacity="0.75"/>
<circle cx="40.09" cy="68.44" r="3.5" fill="#ffffff" stroke="#dbab09" stroke-width="2" stroke-dasharray="3 3" opacity="0.75"/>
<circle cx="40.25" cy="68.44" r="3.5" fill="#ffffff" stroke="#dbab09" stroke-width="2" stroke-dasharray="3 3" opacity="0.75"/>
<circle cx="99.55" cy="68.44" r="3.5" fill="#ffffff" stroke="#dbab09" stroke-width="2" stroke-dasharray="3 3" opacity="0.75"/>
<circle cx="100.62" cy="68.44" r="3.5" fill="#ffffff" stroke="#dbab09" stroke-width="2" stroke-dasharray="3 3" opacity="0.75"/>
<circle cx="116.05" cy="68.44" r="3.5" fill="#ffffff" stroke="#dbab09" stroke-width="2" stroke-dasharray="3 3" opacity="0.75"/>
<circle cx="116.44" cy="68.44" r="3.5" fill="#ffffff" stroke="#dbab09" stroke-width="2" stroke-dasharray="3 3" opacity="0.75"/>
<circle cx="155.61" cy="68.44" r="3.5" fill="#ffffff" stroke="#dbab09" stroke-width="2" stroke-dasharray="3 3" opacity="0.75"/>
<circle cx="227.27" cy="54.11" r="3.5" fill="#ffffff" stroke="#dbab09" stroke-width="2" stroke-dasharray="3 3" opacity="0.75"/>
<circle cx="278.35" cy="54.11" r="3.5" fill="#ffffff" stroke="#dbab09" stroke-width="2" stroke-dasharray="3 3" opacity="0.75"/>
<circle cx="342.36" cy="54.11" r="3.5" fill="#ffffff" stroke="#dbab09" stroke-width="2"/>
<circle cx="343.98" cy="54.11" r="3.5" fill="#ffffff" stroke="#dbab09" stroke-width="2"/>
<circle cx="344.25" cy="54.11" r="3.5" fill="#ffffff" stroke="#dbab09" stroke-width="2"/>
<circle cx="349.51" cy="54.11" r="3.5" fill="#ffffff" stroke="#dbab09" stroke-width="2"/>
<circle cx="355.14" cy="54.11" r="3.5" fill="#ffffff" stroke="#dbab09" stroke-width="2"/>
<circle cx="356.93" cy="54.11" r="3.5" fill="#ffffff" stroke="#dbab09" stroke-width="2"/>
<circle cx="382.63" cy="54.11" r="3.5" fill="#ffffff" stroke="#dbab09" stroke-width="2"/>
<circle cx="423.98" cy="54.11" r="3.5" fill="#ffffff" stroke="#dbab09" stroke-width="2"/>
<circle cx="459.02" cy="54.11" r="3.5" fill="#ffffff" stroke="#dbab09" stroke-width="2"/>
<circle cx="462.10" cy="49.81" r="3.5" fill="#ffffff" stroke="#dbab09" stroke-width="2"/>
<circle cx="466.14" cy="46.94" r="3.5" fill="#ffffff" stroke="#dbab09" stroke-width="2"/>
<circle cx="472.31" cy="41.20" r="3.5" fill="#ffffff" stroke="#dbab09" stroke-width="2"/>
<circle cx="472.31" cy="41.20" r="3.5" fill="#ffffff" stroke="#dbab09" stroke-width="2"/>
<circle cx="472.32" cy="41.20" r="3.5" fill="#ffffff" stroke="#dbab09" stroke-width="2"/>
<circle cx="475.10" cy="41.20" r="3.5" fill="#ffffff" stroke="#dbab09" stroke-width="2"/>
<circle cx="537.29" cy="35.47" r="3.5" fill="#ffffff" stroke="#dbab09" stroke-width="2"/>
<circle cx="551.97" cy="32.60" r="3.5" fill="#ffffff" stroke="#dbab09" stroke-width="2"/>
<circle cx="581.78" cy="28.30" r="3.5" fill="#ffffff" stroke="#dbab09" stroke-width="2"/>
<circle cx="581.78" cy="24.00" r="3.5" fill="#ffffff" stroke="#dbab09" stroke-width="2"/>
<circle cx="611.99" cy="24.00" r="3.5" fill="#ffffff" stroke="#dbab09" stroke-width="2"/>
<circle cx="622.00" cy="24.00" r="3.5" fill="#ffffff" stroke="#dbab09" stroke-width="2"/>
<circle cx="622.00" cy="24.00" r="4.5" fill="#dbab09" stroke="#ffffff" stroke-width="2"/>
<text x="40" y="16" fill="#24292f" font-family="Verdana,Geneva,DejaVu Sans,sans-serif" font-size="13">TODOs trend</text>
<text x="622" y="16" text-anchor="end" fill="#57606a" font-family="Verdana,Geneva,DejaVu Sans,sans-serif" font-size="12">latest 113</text>
<text x="317.10" y="196" text-anchor="middle" fill="#57606a" font-family="Verdana,Geneva,DejaVu Sans,sans-serif" font-size="11">last 30d</text>
<text x="40" y="210" fill="#57606a" font-family="Verdana,Geneva,DejaVu Sans,sans-serif" font-size="11">2026-04-05</text>
<text x="622" y="210" text-anchor="end" fill="#57606a" font-family="Verdana,Geneva,DejaVu Sans,sans-serif" font-size="11">2026-06-01</text>
<text x="12" y="30" fill="#57606a" font-family="Verdana,Geneva,DejaVu Sans,sans-serif" font-size="11">113</text>
<text x="18" y="186" fill="#57606a" font-family="Verdana,Geneva,DejaVu Sans,sans-serif" font-size="11">0</text>
</svg>
