<svg xmlns="http://www.w3.org/2000/svg" width="640" height="220" role="img" aria-label="TODOs trend">
<title>TODOs trend</title>
<rect width="640" height="220" fill="#ffffff"/>
<rect x="40" y="24" width="582" height="162" fill="#f6f8fa" stroke="#d0d7de"/>
<line x1="40" y1="186" x2="622" y2="186" stroke="#8c959f" stroke-width="1"/>
<line x1="40" y1="24" x2="40" y2="186" stroke="#8c959f" stroke-width="1"/>
<line x1="294.47" y1="24" x2="294.47" y2="186" stroke="#8c959f" stroke-dasharray="4 4"/>
<path d="M 40.00 79.91 L 40.04 75.61 L 40.10 68.44 L 40.27 68.44 L 103.97 68.44 L 105.12 68.44 L 121.70 68.44 L 122.11 68.44 L 164.20 68.44 L 241.17 54.11 L 296.04 54.11" fill="none" stroke="#dbab09" stroke-width="2" stroke-dasharray="4 4" opacity="0.65"/>
<path d="M 241.17 54.11 L 296.04 54.11 L 364.81 54.11 L 366.54 54.11 L 366.84 54.11 L 372.48 54.11 L 378.53 54.11 L 380.46 54.11 L 408.07 54.11 L 452.48 54.11 L 490.13 54.11 L 493.43 49.81 L 497.78 46.94 L 504.41 41.20 L 504.41 41.20 L 504.41 41.20 L 507.40 41.20 L 574.21 35.47 L 589.98 32.60 L 622.00 28.30 L 622.00 24.00" fill="none" stroke="#dbab09" stroke-width="3"/>
<circle cx="40.00" cy="79.91" r="3.5" fill="#ffffff" stroke="#dbab09" stroke-width="2" stroke-dasharray="3 3" opacity="0.75"/>
<circle cx="40.04" cy="75.61" r="3.5" fill="#ffffff" stroke="#dbab09" stroke-width="2" stroke-dasharray="3 3" opacity="0.75"/>
<circle cx="40.10" cy="68.44" r="3.5" fill="#ffffff" stroke="#dbab09" stroke-width="2" stroke-dasharray="3 3" opacity="0.75"/>
<circle cx="40.27" cy="68.44" r="3.5" fill="#ffffff" stroke="#dbab09" stroke-width="2" stroke-dasharray="3 3" opacity="0.75"/>
<circle cx="103.97" cy="68.44" r="3.5" fill="#ffffff" stroke="#dbab09" stroke-width="2" stroke-dasharray="3 3" opacity="0.75"/>
<circle cx="105.12" cy="68.44" r="3.5" fill="#ffffff" stroke="#dbab09" stroke-width="2" stroke-dasharray="3 3" opacity="0.75"/>
<circle cx="121.70" cy="68.44" r="3.5" fill="#ffffff" stroke="#dbab09" stroke-width="2" stroke-dasharray="3 3" opacity="0.75"/>
<circle cx="122.11" cy="68.44" r="3.5" fill="#ffffff" stroke="#dbab09" stroke-width="2" stroke-dasharray="3 3" opacity="0.75"/>
<circle cx="164.20" cy="68.44" r="3.5" fill="#ffffff" stroke="#dbab09" stroke-width="2" stroke-dasharray="3 3" opacity="0.75"/>
<circle cx="241.17" cy="54.11" r="3.5" fill="#ffffff" stroke="#dbab09" stroke-width="2" stroke-dasharray="3 3" opacity="0.75"/>
<circle cx="296.04" cy="54.11" r="3.5" fill="#ffffff" stroke="#dbab09" stroke-width="2"/>
<circle cx="364.81" cy="54.11" r="3.5" fill="#ffffff" stroke="#dbab09" stroke-width="2"/>
<circle cx="366.54" cy="54.11" r="3.5" fill="#ffffff" stroke="#dbab09" stroke-width="2"/>
<circle cx="366.84" cy="54.11" r="3.5" fill="#ffffff" stroke="#dbab09" stroke-width="2"/>
<circle cx="372.48" cy="54.11" r="3.5" fill="#ffffff" stroke="#dbab09" stroke-width="2"/>
<circle cx="378.53" cy="54.11" r="3.5" fill="#ffffff" stroke="#dbab09" stroke-width="2"/>
<circle cx="380.46" cy="54.11" r="3.5" fill="#ffffff" stroke="#dbab09" stroke-width="2"/>
<circle cx="408.07" cy="54.11" r="3.5" fill="#ffffff" stroke="#dbab09" stroke-width="2"/>
<circle cx="452.48" cy="54.11" r="3.5" fill="#ffffff" stroke="#dbab09" stroke-width="2"/>
<circle cx="490.13" cy="54.11" r="3.5" fill="#ffffff" stroke="#dbab09" stroke-width="2"/>
<circle cx="493.43" cy="49.81" r="3.5" fill="#ffffff" stroke="#dbab09" stroke-width="2"/>
<circle cx="497.78" cy="46.94" r="3.5" fill="#ffffff" stroke="#dbab09" stroke-width="2"/>
<circle cx="504.41" cy="41.20" r="3.5" fill="#ffffff" stroke="#dbab09" stroke-width="2"/>
<circle cx="504.41" cy="41.20" r="3.5" fill="#ffffff" stroke="#dbab09" stroke-width="2"/>
<circle cx="504.41" cy="41.20" r="3.5" fill="#ffffff" stroke="#dbab09" stroke-width="2"/>
<circle cx="507.40" cy="41.20" r="3.5" fill="#ffffff" stroke="#dbab09" stroke-width="2"/>
<circle cx="574.21" cy="35.47" r="3.5" fill="#ffffff" stroke="#dbab09" stroke-width="2"/>
<circle cx="589.98" cy="32.60" r="3.5" fill="#ffffff" stroke="#dbab09" stroke-width="2"/>
<circle cx="622.00" cy="28.30" r="3.5" fill="#ffffff" stroke="#dbab09" stroke-width="2"/>
<circle cx="622.00" cy="24.00" r="3.5" fill="#ffffff" stroke="#dbab09" stroke-width="2"/>
<circle cx="622.00" cy="24.00" r="4.5" fill="#dbab09" stroke="#ffffff" stroke-width="2"/>
<text x="40" y="16" fill="#24292f" font-family="Verdana,Geneva,DejaVu Sans,sans-serif" font-size="13">TODOs trend</text>
<text x="622" y="16" text-anchor="end" fill="#57606a" font-family="Verdana,Geneva,DejaVu Sans,sans-serif" font-size="12">latest 113</text>
<text x="294.47" y="196" text-anchor="middle" fill="#57606a" font-family="Verdana,Geneva,DejaVu Sans,sans-serif" font-size="11">last 30d</text>
<text x="40" y="210" fill="#57606a" font-family="Verdana,Geneva,DejaVu Sans,sans-serif" font-size="11">2026-04-05</text>
<text x="622" y="210" text-anchor="end" fill="#57606a" font-family="Verdana,Geneva,DejaVu Sans,sans-serif" font-size="11">2026-05-28</text>
<text x="12" y="30" fill="#57606a" font-family="Verdana,Geneva,DejaVu Sans,sans-serif" font-size="11">113</text>
<text x="18" y="186" fill="#57606a" font-family="Verdana,Geneva,DejaVu Sans,sans-serif" font-size="11">0</text>
</svg>
