<svg xmlns="http://www.w3.org/2000/svg" width="640" height="220" role="img" aria-label="TODOs trend">
<title>TODOs trend</title>
<rect width="640" height="220" fill="#ffffff"/>
<rect x="40" y="24" width="582" height="162" fill="#f6f8fa" stroke="#d0d7de"/>
<line x1="40" y1="186" x2="622" y2="186" stroke="#8c959f" stroke-width="1"/>
<line x1="40" y1="24" x2="40" y2="186" stroke="#8c959f" stroke-width="1"/>
<line x1="311.77" y1="24" x2="311.77" y2="186" stroke="#8c959f" stroke-dasharray="4 4"/>
<path d="M 40.00 79.91 L 40.04 75.61 L 40.09 68.44 L 40.25 68.44 L 100.59 68.44 L 101.68 68.44 L 117.38 68.44 L 117.77 68.44 L 157.64 68.44 L 230.54 54.11 L 282.52 54.11 L 347.65 54.11" fill="none" stroke="#dbab09" stroke-width="2" stroke-dasharray="4 4" opacity="0.65"/>
<path d="M 282.52 54.11 L 347.65 54.11 L 349.30 54.11 L 349.58 54.11 L 354.92 54.11 L 360.65 54.11 L 362.48 54.11 L 388.63 54.11 L 430.69 54.11 L 466.36 54.11 L 469.48 49.81 L 473.60 46.94 L 479.88 41.20 L 479.88 41.20 L 479.88 41.20 L 482.71 41.20 L 545.99 35.47 L 560.93 32.60 L 591.26 28.30 L 591.26 24.00 L 622.00 24.00" fill="none" stroke="#dbab09" stroke-width="3"/>
<circle cx="40.00" cy="79.91" r="3.5" fill="#ffffff" stroke="#dbab09" stroke-width="2" stroke-dasharray="3 3" opacity="0.75"/>
<circle cx="40.04" cy="75.61" r="3.5" fill="#ffffff" stroke="#dbab09" stroke-width="2" stroke-dasharray="3 3" opacity="0.75"/>
<circle cx="40.09" cy="68.44" r="3.5" fill="#ffffff" stroke="#dbab09" stroke-width="2" stroke-dasharray="3 3" opacity="0.75"/>
<circle cx="40.25" cy="68.44" r="3.5" fill="#ffffff" stroke="#dbab09" stroke-width="2" stroke-dasharray="3 3" opacity="0.75"/>
<circle cx="100.59" cy="68.44" r="3.5" fill="#ffffff" stroke="#dbab09" stroke-width="2" stroke-dasharray="3 3" opacity="0.75"/>
<circle cx="101.68" cy="68.44" r="3.5" fill="#ffffff" stroke="#dbab09" stroke-width="2" stroke-dasharray="3 3" opacity="0.75"/>
<circle cx="117.38" cy="68.44" r="3.5" fill="#ffffff" stroke="#dbab09" stroke-width="2" stroke-dasharray="3 3" opacity="0.75"/>
<circle cx="117.77" cy="68.44" r="3.5" fill="#ffffff" stroke="#dbab09" stroke-width="2" stroke-dasharray="3 3" opacity="0.75"/>
<circle cx="157.64" cy="68.44" r="3.5" fill="#ffffff" stroke="#dbab09" stroke-width="2" stroke-dasharray="3 3" opacity="0.75"/>
<circle cx="230.54" cy="54.11" r="3.5" fill="#ffffff" stroke="#dbab09" stroke-width="2" stroke-dasharray="3 3" opacity="0.75"/>
<circle cx="282.52" cy="54.11" r="3.5" fill="#ffffff" stroke="#dbab09" stroke-width="2" stroke-dasharray="3 3" opacity="0.75"/>
<circle cx="347.65" cy="54.11" r="3.5" fill="#ffffff" stroke="#dbab09" stroke-width="2"/>
<circle cx="349.30" cy="54.11" r="3.5" fill="#ffffff" stroke="#dbab09" stroke-width="2"/>
<circle cx="349.58" cy="54.11" r="3.5" fill="#ffffff" stroke="#dbab09" stroke-width="2"/>
<circle cx="354.92" cy="54.11" r="3.5" fill="#ffffff" stroke="#dbab09" stroke-width="2"/>
<circle cx="360.65" cy="54.11" r="3.5" fill="#ffffff" stroke="#dbab09" stroke-width="2"/>
<circle cx="362.48" cy="54.11" r="3.5" fill="#ffffff" stroke="#dbab09" stroke-width="2"/>
<circle cx="388.63" cy="54.11" r="3.5" fill="#ffffff" stroke="#dbab09" stroke-width="2"/>
<circle cx="430.69" cy="54.11" r="3.5" fill="#ffffff" stroke="#dbab09" stroke-width="2"/>
<circle cx="466.36" cy="54.11" r="3.5" fill="#ffffff" stroke="#dbab09" stroke-width="2"/>
<circle cx="469.48" cy="49.81" r="3.5" fill="#ffffff" stroke="#dbab09" stroke-width="2"/>
<circle cx="473.60" cy="46.94" r="3.5" fill="#ffffff" stroke="#dbab09" stroke-width="2"/>
<circle cx="479.88" cy="41.20" r="3.5" fill="#ffffff" stroke="#dbab09" stroke-width="2"/>
<circle cx="479.88" cy="41.20" r="3.5" fill="#ffffff" stroke="#dbab09" stroke-width="2"/>
<circle cx="479.88" cy="41.20" r="3.5" fill="#ffffff" stroke="#dbab09" stroke-width="2"/>
<circle cx="482.71" cy="41.20" r="3.5" fill="#ffffff" stroke="#dbab09" stroke-width="2"/>
<circle cx="545.99" cy="35.47" r="3.5" fill="#ffffff" stroke="#dbab09" stroke-width="2"/>
<circle cx="560.93" cy="32.60" r="3.5" fill="#ffffff" stroke="#dbab09" stroke-width="2"/>
<circle cx="591.26" cy="28.30" r="3.5" fill="#ffffff" stroke="#dbab09" stroke-width="2"/>
<circle cx="591.26" cy="24.00" r="3.5" fill="#ffffff" stroke="#dbab09" stroke-width="2"/>
<circle cx="622.00" cy="24.00" r="3.5" fill="#ffffff" stroke="#dbab09" stroke-width="2"/>
<circle cx="622.00" cy="24.00" r="4.5" fill="#dbab09" stroke="#ffffff" stroke-width="2"/>
<text x="40" y="16" fill="#24292f" font-family="Verdana,Geneva,DejaVu Sans,sans-serif" font-size="13">TODOs trend</text>
<text x="622" y="16" text-anchor="end" fill="#57606a" font-family="Verdana,Geneva,DejaVu Sans,sans-serif" font-size="12">latest 113</text>
<text x="311.77" y="196" text-anchor="middle" fill="#57606a" font-family="Verdana,Geneva,DejaVu Sans,sans-serif" font-size="11">last 30d</text>
<text x="40" y="210" fill="#57606a" font-family="Verdana,Geneva,DejaVu Sans,sans-serif" font-size="11">2026-04-05</text>
<text x="622" y="210" text-anchor="end" fill="#57606a" font-family="Verdana,Geneva,DejaVu Sans,sans-serif" font-size="11">2026-05-31</text>
<text x="12" y="30" fill="#57606a" font-family="Verdana,Geneva,DejaVu Sans,sans-serif" font-size="11">113</text>
<text x="18" y="186" fill="#57606a" font-family="Verdana,Geneva,DejaVu Sans,sans-serif" font-size="11">0</text>
</svg>
